<?xml version="1.0" encoding="utf-8"?>
<!-- Generator: Adobe Illustrator 21.0.0, SVG Export Plug-In . SVG Version: 6.00 Build 0)  -->
<svg version="1.1" id="Layer_1" xmlns="http://www.w3.org/2000/svg" xmlns:xlink="http://www.w3.org/1999/xlink" x="0px" y="0px"
	 viewBox="0 0 600 400" enable-background="new 0 0 600 400" xml:space="preserve">
<g>
	<g>
		<path fill="#FFFFFF" d="M138.322,90.325c47.78,0,95.509-7.87,142.088-16.71l3.449-21.463
			c-48.521,9.326-97.042,17.732-145.537,17.732C98.565,69.885,58.783,64.212,19,48.78v281.058
			c39.783,15.458,79.539,21.105,119.322,21.105c32.935,0,65.87-3.884,98.83-9.275l3.449-21.335
			c-34.238,5.826-68.629,10.169-102.28,10.169c-35.95,0-68.451-4.931-98.881-15.024V77.192
			C70.255,86.007,102.883,90.325,138.322,90.325z"/>
		<path fill="#FFFFFF" d="M277.573,91.092L243.795,300.48c-50.003,6.72-100.031,9.888-150.059,0.485
			c0.179-1.61,0.255-3.322,0.255-5.059c0-24.043-16.787-46.221-37.483-52.941V135.652c20.696,6.72,37.483-9.99,37.483-33.931
			c0-1.737-0.077-3.449-0.255-5.161C155.032,108.083,216.303,100.724,277.573,91.092z"/>
		<text transform="matrix(1 0 0 1 123.7578 244.8916)" fill="#0071BC" font-family="'MyriadPro-Regular'" font-size="152.4135px">$</text>
	</g>
	<g>
		<path fill="#FFFFFF" d="M464.375,27.7c38.939,0.23,77.802,5.953,116.741,21.079v281.058
			c-39.782-15.433-79.565-21.105-119.322-21.105c-52.328,0-104.656,9.786-157.009,19.93l3.475-21.488
			c50.207-9.658,101.82-18.882,153.534-18.882c35.464,0,68.067,4.318,98.881,13.133V63.139
			c-15.228-5.059-30.942-8.789-47.371-11.293c-16.02-2.453-32.73-3.679-50.258-3.73c-36.997,0.128-74.864,5.468-112.423,12.162
			l3.449-21.36c35.924-6.26,71.849-11.013,107.747-11.217"/>
		<path fill="#FFFFFF" d="M548.386,135.575v107.466c-0.741-0.281-1.482-0.562-2.223-0.792
			c-20.696-6.541-37.483,10.297-37.483,34.238c0,1.737,0.077,3.449,0.255,5.161c-65.103-11.753-130.207-2.427-195.31,8.048
			l33.804-209.618v-0.026c53.835-7.844,107.671-12.546,161.506-2.811c-0.179,1.61-0.255,3.322-0.255,5.059
			c0,24.043,16.787,46.093,37.483,52.634C546.904,135.167,547.645,135.397,548.386,135.575z"/>
		<text transform="matrix(1 0 0 1 387.9521 226.8252)" fill="#0071BC" font-family="'MyriadPro-Regular'" font-size="152.4135px">€</text>
	</g>
	<polygon fill="#FFFFFF" points="331.179,1.46 324.255,44.359 320.805,65.822 317.765,84.627 283.91,294.501 280.921,312.974 
		277.471,334.437 266.893,400 256.928,398.39 266.919,336.43 270.394,314.967 273.409,296.136 307.263,86.339 307.263,86.314 
		310.253,67.866 313.702,46.378 321.214,-0.15 	"/>
</g>
</svg>
